<svg width="152" height="22" viewBox="0 0 152 22" fill="none" xmlns="http://www.w3.org/2000/svg">
<path d="M4.1648 16.3697L4.74107 13.7503H13.254L13.8565 16.3697H4.1648ZM8.95826 7.93533L6.07695 14.6671L6.02456 15.3482L3.48377 21.0846H0L8.95826 1.72742L17.9165 21.0846H14.4327L11.9443 15.5053L11.8658 14.7457L8.95826 7.93533Z" fill="white"/>
<path d="M21.6997 15.06C21.6997 15.8284 21.8656 16.5007 22.1974 17.0769C22.5291 17.6357 22.9744 18.081 23.5332 18.4128C24.1095 18.7446 24.7469 18.9105 25.4454 18.9105C26.0216 18.9105 26.5717 18.8232 27.0956 18.6486C27.6195 18.4739 28.0822 18.2295 28.4838 17.9151C28.8855 17.6008 29.1823 17.2516 29.3744 16.8674V19.9845C28.9553 20.4036 28.3878 20.7353 27.6718 20.9798C26.9559 21.2243 26.1701 21.3465 25.3144 21.3465C24.0746 21.3465 22.957 21.0846 21.9616 20.5607C20.9837 20.0194 20.2066 19.2772 19.6304 18.3342C19.0716 17.3738 18.7922 16.2824 18.7922 15.06C18.7922 13.8202 19.0716 12.7288 19.6304 11.7858C20.2066 10.8428 20.9837 10.1094 21.9616 9.58554C22.957 9.0442 24.0746 8.77353 25.3144 8.77353C26.1701 8.77353 26.9559 8.89577 27.6718 9.14024C28.3878 9.38472 28.9553 9.71651 29.3744 10.1356V13.2527C29.1823 12.851 28.8768 12.5018 28.4577 12.2049C28.056 11.8906 27.5933 11.6461 27.0694 11.4715C26.5455 11.2969 26.0042 11.2095 25.4454 11.2095C24.7469 11.2095 24.1095 11.3754 23.5332 11.7072C22.9744 12.039 22.5291 12.493 22.1974 13.0693C21.8656 13.6456 21.6997 14.3091 21.6997 15.06Z" fill="white"/>
<path d="M34.3873 15.06C34.3873 15.8284 34.5532 16.5007 34.8849 17.0769C35.2167 17.6357 35.662 18.081 36.2208 18.4128C36.7971 18.7446 37.4345 18.9105 38.133 18.9105C38.7092 18.9105 39.2593 18.8232 39.7832 18.6486C40.307 18.4739 40.7698 18.2295 41.1714 17.9151C41.5731 17.6008 41.8699 17.2516 42.062 16.8674V19.9845C41.6429 20.4036 41.0754 20.7353 40.3594 20.9798C39.6435 21.2243 38.8577 21.3465 38.002 21.3465C36.7622 21.3465 35.6446 21.0846 34.6492 20.5607C33.6713 20.0194 32.8942 19.2772 32.318 18.3342C31.7592 17.3738 31.4798 16.2824 31.4798 15.06C31.4798 13.8202 31.7592 12.7288 32.318 11.7858C32.8942 10.8428 33.6713 10.1094 34.6492 9.58554C35.6446 9.0442 36.7622 8.77353 38.002 8.77353C38.8577 8.77353 39.6435 8.89577 40.3594 9.14024C41.0754 9.38472 41.6429 9.71651 42.062 10.1356V13.2527C41.8699 12.851 41.5643 12.5018 41.1452 12.2049C40.7436 11.8906 40.2809 11.6461 39.757 11.4715C39.2331 11.2969 38.6918 11.2095 38.133 11.2095C37.4345 11.2095 36.7971 11.3754 36.2208 11.7072C35.662 12.039 35.2167 12.493 34.8849 13.0693C34.5532 13.6456 34.3873 14.3091 34.3873 15.06Z" fill="white"/>
<path d="M50.4277 21.3465C49.2053 21.3465 48.1226 21.0846 47.1796 20.5607C46.2541 20.0368 45.5382 19.3034 45.0317 18.3604C44.5253 17.4175 44.2721 16.3173 44.2721 15.06C44.2721 13.7853 44.5253 12.6764 45.0317 11.7334C45.5556 10.7904 46.289 10.0658 47.232 9.55934C48.175 9.03547 49.2839 8.77353 50.5586 8.77353C51.8334 8.77353 52.9161 9.01801 53.8066 9.50696C54.6972 9.99591 55.3783 10.7031 55.8498 11.6286C56.3387 12.5367 56.5832 13.6368 56.5832 14.9291C56.5832 15.0688 56.5744 15.2172 56.557 15.3744C56.557 15.5315 56.5483 15.645 56.5308 15.7149H45.9485V13.7765H54.121L53.2566 14.9814C53.309 14.8767 53.3614 14.737 53.4137 14.5623C53.4836 14.3703 53.5185 14.2131 53.5185 14.0909C53.5185 13.4447 53.3875 12.8859 53.1256 12.4145C52.8811 11.943 52.5319 11.5763 52.0779 11.3143C51.6413 11.0524 51.1261 10.9214 50.5324 10.9214C49.8165 10.9214 49.2053 11.0786 48.6989 11.3929C48.1925 11.7072 47.8083 12.1613 47.5463 12.755C47.2844 13.3487 47.1447 14.0821 47.1272 14.9553C47.1272 15.8284 47.2582 16.5705 47.5201 17.1817C47.7821 17.7754 48.1663 18.2295 48.6727 18.5438C49.1965 18.8581 49.8252 19.0153 50.5586 19.0153C51.327 19.0153 51.9993 18.8581 52.5755 18.5438C53.1518 18.2295 53.632 17.7493 54.0162 17.1031L56.4522 18.0985C55.8236 19.1812 55.0116 19.9932 54.0162 20.5345C53.0208 21.0759 51.8246 21.3465 50.4277 21.3465Z" fill="white"/>
<path d="M59.2834 0.653473H62.1123V21.0846H59.2834V0.653473Z" fill="white"/>
<path d="M70.9682 21.3465C69.7459 21.3465 68.6632 21.0846 67.7202 20.5607C66.7947 20.0368 66.0788 19.3034 65.5723 18.3604C65.0659 17.4175 64.8127 16.3173 64.8127 15.06C64.8127 13.7853 65.0659 12.6764 65.5723 11.7334C66.0962 10.7904 66.8296 10.0658 67.7726 9.55934C68.7156 9.03547 69.8244 8.77353 71.0992 8.77353C72.374 8.77353 73.4566 9.01801 74.3472 9.50696C75.2378 9.99591 75.9189 10.7031 76.3904 11.6286C76.8793 12.5367 77.1238 13.6368 77.1238 14.9291C77.1238 15.0688 77.115 15.2172 77.0976 15.3744C77.0976 15.5315 77.0889 15.645 77.0714 15.7149H66.4891V13.7765H74.6616L73.7972 14.9814C73.8496 14.8767 73.9019 14.737 73.9543 14.5623C74.0242 14.3703 74.0591 14.2131 74.0591 14.0909C74.0591 13.4447 73.9281 12.8859 73.6662 12.4145C73.4217 11.943 73.0725 11.5763 72.6185 11.3143C72.1819 11.0524 71.6667 10.9214 71.073 10.9214C70.3571 10.9214 69.7459 11.0786 69.2395 11.3929C68.733 11.7072 68.3489 12.1613 68.0869 12.755C67.825 13.3487 67.6853 14.0821 67.6678 14.9553C67.6678 15.8284 67.7988 16.5705 68.0607 17.1817C68.3227 17.7754 68.7069 18.2295 69.2133 18.5438C69.7371 18.8581 70.3658 19.0153 71.0992 19.0153C71.8676 19.0153 72.5399 18.8581 73.1161 18.5438C73.6924 18.2295 74.1726 17.7493 74.5568 17.1031L76.9928 18.0985C76.3642 19.1812 75.5522 19.9932 74.5568 20.5345C73.5614 21.0759 72.3652 21.3465 70.9682 21.3465Z" fill="white"/>
<path d="M82.6267 9.03547V21.0846H79.824V9.03547H82.6267ZM86.2152 12.0477C85.9533 11.8382 85.7088 11.681 85.4818 11.5763C85.2548 11.4715 84.9667 11.4191 84.6174 11.4191C84.146 11.4191 83.7618 11.5413 83.4649 11.7858C83.168 12.0303 82.9498 12.3708 82.8101 12.8074C82.6878 13.2265 82.6267 13.7241 82.6267 14.3004L81.6837 13.7503C81.6837 12.7899 81.8584 11.943 82.2076 11.2095C82.5743 10.4587 83.0371 9.86494 83.5959 9.42838C84.1721 8.99181 84.7659 8.77353 85.3771 8.77353C85.8136 8.77353 86.224 8.84338 86.6082 8.98308C86.9923 9.10532 87.3154 9.33233 87.5773 9.66412L86.2152 12.0477Z" fill="white"/>
<path d="M91.2999 17.3389C91.2999 17.7405 91.396 18.0898 91.588 18.3866C91.7801 18.666 92.0421 18.8756 92.3738 19.0153C92.7231 19.155 93.116 19.2248 93.5526 19.2248C94.1114 19.2248 94.6178 19.1113 95.0718 18.8843C95.5433 18.6573 95.9187 18.3255 96.1981 17.889C96.495 17.4349 96.6434 16.9111 96.6434 16.3173L97.0625 17.889C97.0625 18.6573 96.8355 19.3034 96.3815 19.8273C95.9449 20.3337 95.3861 20.7179 94.7051 20.9798C94.0415 21.2243 93.3605 21.3465 92.662 21.3465C91.9111 21.3465 91.2126 21.1981 90.5665 20.9012C89.9204 20.6044 89.4052 20.1678 89.021 19.5915C88.6369 19.0153 88.4448 18.3168 88.4448 17.496C88.4448 16.3261 88.8552 15.4005 89.6759 14.7195C90.4966 14.021 91.6579 13.6718 93.1597 13.6718C93.9629 13.6718 94.6527 13.7591 95.229 13.9337C95.8227 14.1083 96.3116 14.3179 96.6958 14.5623C97.08 14.7894 97.3507 14.9989 97.5078 15.191V16.6317C96.9665 16.2475 96.3902 15.9681 95.779 15.7935C95.1679 15.6188 94.5217 15.5315 93.8407 15.5315C93.247 15.5315 92.7668 15.6101 92.4 15.7673C92.0333 15.907 91.7539 16.1078 91.5618 16.3697C91.3872 16.6317 91.2999 16.9547 91.2999 17.3389ZM90.4093 12.1787L89.2568 10.188C89.7981 9.85621 90.4966 9.53315 91.3523 9.21883C92.2254 8.9045 93.2208 8.74734 94.3384 8.74734C95.3337 8.74734 96.2069 8.89577 96.9577 9.19263C97.7261 9.48949 98.3286 9.91733 98.7651 10.4761C99.2017 11.0175 99.42 11.6898 99.42 12.493V21.0846H96.6434V13.0431C96.6434 12.6589 96.5736 12.3446 96.4339 12.1001C96.3116 11.8557 96.137 11.6548 95.91 11.4977C95.683 11.3405 95.4123 11.227 95.098 11.1572C94.7837 11.0873 94.4432 11.0524 94.0764 11.0524C93.5176 11.0524 92.985 11.1222 92.4786 11.2619C91.9897 11.3842 91.5619 11.5413 91.1951 11.7334C90.8459 11.908 90.5839 12.0565 90.4093 12.1787Z" fill="white"/>
<path d="M101.042 9.03547H107.878V11.5239H101.042V9.03547ZM103.058 4.84447H105.861V21.0846H103.058V4.84447Z" fill="white"/>
<path d="M108.912 15.06C108.912 13.8202 109.192 12.7288 109.751 11.7858C110.327 10.8428 111.104 10.1094 112.082 9.58554C113.06 9.0442 114.169 8.77353 115.408 8.77353C116.648 8.77353 117.748 9.0442 118.709 9.58554C119.687 10.1094 120.464 10.8428 121.04 11.7858C121.616 12.7288 121.904 13.8202 121.904 15.06C121.904 16.2824 121.616 17.3738 121.04 18.3342C120.464 19.2772 119.687 20.0194 118.709 20.5607C117.748 21.0846 116.648 21.3465 115.408 21.3465C114.169 21.3465 113.06 21.0846 112.082 20.5607C111.104 20.0194 110.327 19.2772 109.751 18.3342C109.192 17.3738 108.912 16.2824 108.912 15.06ZM111.82 15.06C111.82 15.8109 111.977 16.4745 112.291 17.0508C112.606 17.6096 113.033 18.0548 113.575 18.3866C114.116 18.701 114.727 18.8581 115.408 18.8581C116.072 18.8581 116.674 18.701 117.216 18.3866C117.775 18.0548 118.211 17.6096 118.525 17.0508C118.84 16.4745 118.997 15.8109 118.997 15.06C118.997 14.3091 118.84 13.6456 118.525 13.0693C118.211 12.493 117.775 12.0477 117.216 11.7334C116.674 11.4191 116.072 11.2619 115.408 11.2619C114.727 11.2619 114.116 11.4191 113.575 11.7334C113.033 12.0477 112.606 12.493 112.291 13.0693C111.977 13.6456 111.82 14.3091 111.82 15.06Z" fill="white"/>
<path d="M127.391 9.03547V21.0846H124.589V9.03547H127.391ZM130.98 12.0477C130.718 11.8382 130.474 11.681 130.247 11.5763C130.02 11.4715 129.731 11.4191 129.382 11.4191C128.911 11.4191 128.526 11.5413 128.23 11.7858C127.933 12.0303 127.714 12.3708 127.575 12.8074C127.453 13.2265 127.391 13.7241 127.391 14.3004L126.448 13.7503C126.448 12.7899 126.623 11.943 126.972 11.2095C127.339 10.4587 127.802 9.86494 128.361 9.42838C128.937 8.99181 129.531 8.77353 130.142 8.77353C130.578 8.77353 130.989 8.84338 131.373 8.98308C131.757 9.10532 132.08 9.33233 132.342 9.66412L130.98 12.0477Z" fill="white"/>
<path d="M137.517 1.65344H133.631L139.916 10.9954L133.346 20.4802H137.517L144.516 10.9954L137.517 1.65344Z" fill="#1A71F5"/>
<path d="M146.973 1.65344L144.002 6.02445L145.945 8.82418L150.944 1.65344H146.973Z" fill="#1A71F5"/>
<path d="M145.944 13.138L143.916 15.9378L147.087 20.4802H151.172L145.944 13.138Z" fill="#1A71F5"/>
</svg>
